<svg width="32" height="32" viewBox="0 0 32 32" fill="none" xmlns="http://www.w3.org/2000/svg">
<path fill-rule="evenodd" clip-rule="evenodd" d="M12.4421 23.518C13.2344 23.8291 14.0972 24 14.9999 24H16.1235C17.0597 24 17.9576 24.3719 18.6196 25.0339L19.8551 26.2695C21.6308 28.0452 24.4015 26.1097 23.6794 23.9674C27.2265 23.6258 29.9999 20.6368 29.9999 17C29.9999 14.1667 28.3166 11.7266 25.8955 10.6251C25.9642 11.0734 25.9999 11.5325 25.9999 12C25.9999 12.325 25.9827 12.6459 25.9491 12.962C27.1924 13.8716 27.9999 15.3415 27.9999 17C27.9999 19.7614 25.7613 22 22.9999 22H22.0813C21.2682 22 20.7659 22.8871 21.1843 23.5844L21.7307 24.495C21.7963 24.6043 21.7895 24.6687 21.7812 24.7043C21.7692 24.7554 21.7317 24.8227 21.6593 24.8792C21.5869 24.9357 21.5126 24.9558 21.4601 24.955C21.4236 24.9544 21.3595 24.9454 21.2694 24.8553L20.0338 23.6197C18.9967 22.5826 17.5901 22 16.1235 22H14.9999C14.7597 22 14.5234 21.9831 14.2922 21.9503L13.5588 22.6837C13.2044 23.0381 12.8287 23.3136 12.4421 23.518Z" fill="#FF9200"/>
<path fill-rule="evenodd" clip-rule="evenodd" d="M9 5C5.13401 5 2 8.13401 2 12C2 15.6368 4.77337 18.6258 8.32052 18.9674C7.59835 21.1097 10.3691 23.0452 12.1447 21.2695L13.3803 20.0339C14.0423 19.3719 14.9402 19 15.8764 19H17C20.866 19 24 15.866 24 12C24 8.13401 20.866 5 17 5H9ZM4 12C4 9.23858 6.23858 7 9 7H17C19.7614 7 22 9.23858 22 12C22 14.7614 19.7614 17 17 17H15.8764C14.4097 17 13.0032 17.5826 11.9661 18.6197L10.7305 19.8553C10.6404 19.9454 10.5763 19.9544 10.5398 19.955C10.4873 19.9558 10.4129 19.9357 10.3406 19.8792C10.2682 19.8226 10.2306 19.7554 10.2187 19.7043C10.2104 19.6687 10.2036 19.6043 10.2692 19.495L10.8156 18.5843C11.2339 17.8871 10.7317 17 9.91854 17H9C6.23858 17 4 14.7614 4 12ZM8 13C8.55228 13 9 12.5523 9 12C9 11.4477 8.55228 11 8 11C7.44772 11 7 11.4477 7 12C7 12.5523 7.44772 13 8 13ZM14 12C14 12.5523 13.5523 13 13 13C12.4477 13 12 12.5523 12 12C12 11.4477 12.4477 11 13 11C13.5523 11 14 11.4477 14 12ZM18 13C18.5523 13 19 12.5523 19 12C19 11.4477 18.5523 11 18 11C17.4477 11 17 11.4477 17 12C17 12.5523 17.4477 13 18 13Z" fill="#E8366C"/>
<path d="M3 12.2304C3 8.78946 5.78946 6 9.23043 6H16.8422C20.2431 6 23 8.75693 23 12.1578C23 15.4329 20.4364 18.1349 17.1659 18.3071L14.2589 18.4601C13.7662 18.486 13.2952 18.6707 12.9162 18.9865L11.9244 19.813C11.2213 20.3989 10.1513 20.1282 9.81139 19.2785C9.62075 18.8019 9.17582 18.4751 8.66403 18.4357L6.88718 18.299C4.69374 18.1303 3 16.3013 3 14.1013V12.2304Z" fill="#E8366C"/>
<path d="M9 11.5C9 10.6716 8.32843 10 7.5 10C6.67157 10 6 10.6716 6 11.5C6 12.3284 6.67157 13 7.5 13C8.32843 13 9 12.3284 9 11.5Z" fill="white"/>
<path d="M14.5 11.5C14.5 10.6716 13.8284 10 13 10C12.1716 10 11.5 10.6716 11.5 11.5C11.5 12.3284 12.1716 13 13 13C13.8284 13 14.5 12.3284 14.5 11.5Z" fill="white"/>
<path d="M20 11.5C20 10.6716 19.3284 10 18.5 10C17.6716 10 17 10.6716 17 11.5C17 12.3284 17.6716 13 18.5 13C19.3284 13 20 12.3284 20 11.5Z" fill="white"/>
</svg>
