<svg width="16" height="16" viewBox="0 0 16 16" fill="none" xmlns="http://www.w3.org/2000/svg">
<path d="M12.7071 7.70711C13.0976 7.31658 13.0976 6.68342 12.7071 6.29289C12.3166 5.90237 11.6834 5.90237 11.2929 6.29289L12.7071 7.70711ZM4.70711 6.29289C4.31658 5.90237 3.68342 5.90237 3.29289 6.29289C2.90237 6.68342 2.90237 7.31658 3.29289 7.70711L4.70711 6.29289ZM11.2929 6.29289L7.64645 9.93934L9.06066 11.3536L12.7071 7.70711L11.2929 6.29289ZM8.35355 9.93934L4.70711 6.29289L3.29289 7.70711L6.93934 11.3536L8.35355 9.93934ZM7.64645 9.93934C7.84171 9.74408 8.15829 9.74408 8.35355 9.93934L6.93934 11.3536C7.52513 11.9393 8.47487 11.9393 9.06066 11.3536L7.64645 9.93934Z" fill="#9A9CB5"/>
</svg>
